<!DOCTYPE svg PUBLIC "-//W3C//DTD SVG 1.1//EN" "http://www.w3.org/Graphics/SVG/1.1/DTD/svg11.dtd">

<!-- Uploaded to: SVG Repo, www.svgrepo.com, Transformed by: SVG Repo Mixer Tools -->
<svg width="800px" height="800px" viewBox="-204.8 -204.8 1433.60 1433.60" xmlns="http://www.w3.org/2000/svg" fill="currentColor">

<g id="SVGRepo_bgCarrier" stroke-width="0"/>

<g id="SVGRepo_tracerCarrier" stroke-linecap="round" stroke-linejoin="round"/>

<g id="SVGRepo_iconCarrier">

<path fill="currentColor" d="M737.216 357.952 704 349.824l-11.776-32a192.064 192.064 0 0 0-367.424 23.04l-8.96 39.04-39.04 8.96A192.064 192.064 0 0 0 320 768h368a207.808 207.808 0 0 0 207.808-208 208.32 208.32 0 0 0-158.592-202.048zm15.168-62.208A272.32 272.32 0 0 1 959.744 560a271.808 271.808 0 0 1-271.552 272H320a256 256 0 0 1-57.536-505.536 256.128 256.128 0 0 1 489.92-30.72z"/>

</g>

</svg>